# xmcd
#
# Track frame offsets:
#	150
#	24394
#	72096
#	99019
#	138764
#	150340
#	179445
#	204395
#	256519
#	293627
#	326331
#
# Disc length: 4755 seconds
#
# Revision: 1
# Processed by: cddbd v1.5.2PL0 Copyright (c) Steve Scherf et al.
# Submitted via: audiograbber 1.83.01
#
DISCID=7e12910b
DTITLE=Grateful Dead - 78-12-27 Golden Hall, Community Concourse, San Diego CA
DYEAR=1900
DGENRE=
TTITLE0=Promised Land
TTITLE1=Friend Of The Devil
TTITLE2=Cassidy
TTITLE3=Peggy-O
TTITLE4=Mama Tried
TTITLE5=Mexicali Blues
TTITLE6=Mississippi Half-Step
TTITLE7=Franklin's Tower
TTITLE8=The Music Never Stopped
TTITLE9=Bertha
TTITLE10=Good Lovin'
EXTD=
EXTT0=
EXTT1=
EXTT2=
EXTT3=
EXTT4=
EXTT5=
EXTT6=
EXTT7=
EXTT8=
EXTT9=
EXTT10=
PLAYORDER=
